<svg width="50" height="105" viewBox="0 0 50 105" fill="none" xmlns="http://www.w3.org/2000/svg">
<path d="M18.75 45.8334H31.25C41.6667 45.8334 45.8333 41.6668 45.8333 31.2501V18.7501C45.8333 8.33342 41.6667 4.16675 31.25 4.16675H18.75C8.33332 4.16675 4.16666 8.33342 4.16666 18.7501V31.2501C4.16666 41.6668 8.33332 45.8334 18.75 45.8334Z" stroke="black" stroke-width="1.5" stroke-linecap="round" stroke-linejoin="round"/>
<path d="M17.6458 28.0416L25 20.7083L32.3542 28.0416" stroke="black" stroke-width="1.5" stroke-linecap="round" stroke-linejoin="round"/>
<path d="M18.75 100.833H31.25C41.6667 100.833 45.8333 96.6668 45.8333 86.2501V73.7501C45.8333 63.3334 41.6667 59.1667 31.25 59.1667H18.75C8.33332 59.1667 4.16666 63.3334 4.16666 73.7501V86.2501C4.16666 96.6668 8.33332 100.833 18.75 100.833Z" stroke="black" stroke-width="1.5" stroke-linecap="round" stroke-linejoin="round"/>
<path d="M17.6458 77.1667L25 84.5001L32.3542 77.1667" stroke="black" stroke-width="1.5" stroke-linecap="round" stroke-linejoin="round"/>
</svg>
